REM DIRINDEX 1\2,1\3,1\4,1\5
REM DIRNAME folder01,folder02,folder03,folder04,folder05
TITLE ""
FILE "1800_143.mp3" MP3
  TRACK 01 AUDIO
    TITLE "2:cjc044_4353"
    INDEX 01 00:00:00
  TRACK 02 AUDIO
    TITLE "0:"
    INDEX 01 00:00:62
  TRACK 03 AUDIO
    TITLE "3:cjc044_4354"
    INDEX 01 00:01:50
  TRACK 04 AUDIO
    TITLE "0:"
    INDEX 01 00:03:02
  TRACK 05 AUDIO
    TITLE "4:cjc044_4355"
    INDEX 01 00:03:61
  TRACK 06 AUDIO
    TITLE "0:"
    INDEX 01 00:04:58
  TRACK 07 AUDIO
    TITLE "5:cjc044_4356"
    INDEX 01 00:05:42
  TRACK 08 AUDIO
    TITLE "0:"
    INDEX 01 00:08:36
  TRACK 09 AUDIO
    TITLE "2:cjc044_4357"
    INDEX 01 00:10:25
  TRACK 10 AUDIO
    TITLE "0:"
    INDEX 01 00:11:29
  TRACK 11 AUDIO
    TITLE "3:cjc044_4358"
    INDEX 01 00:12:12
  TRACK 12 AUDIO
    TITLE "0:"
    INDEX 01 00:13:47
  TRACK 13 AUDIO
    TITLE "4:cjc044_4359"
    INDEX 01 00:14:37
  TRACK 14 AUDIO
    TITLE "0:"
    INDEX 01 00:15:44
  TRACK 15 AUDIO
    TITLE "5:cjc044_4360"
    INDEX 01 00:16:18
  TRACK 16 AUDIO
    TITLE "0:"
    INDEX 01 00:18:48
  TRACK 17 AUDIO
    TITLE "2:cjc044_4361"
    INDEX 01 00:20:30
  TRACK 18 AUDIO
    TITLE "0:"
    INDEX 01 00:21:25
  TRACK 19 AUDIO
    TITLE "3:cjc044_4362"
    INDEX 01 00:22:19
  TRACK 20 AUDIO
    TITLE "0:"
    INDEX 01 00:23:26
  TRACK 21 AUDIO
    TITLE "4:cjc044_4363"
    INDEX 01 00:24:10
  TRACK 22 AUDIO
    TITLE "0:"
    INDEX 01 00:25:07
  TRACK 23 AUDIO
    TITLE "5:cjc044_4364"
    INDEX 01 00:25:64
  TRACK 24 AUDIO
    TITLE "0:"
    INDEX 01 00:28:13
  TRACK 25 AUDIO
    TITLE "2:cjc044_4365"
    INDEX 01 00:30:01
  TRACK 26 AUDIO
    TITLE "0:"
    INDEX 01 00:31:20
  TRACK 27 AUDIO
    TITLE "3:cjc044_4366"
    INDEX 01 00:32:03
  TRACK 28 AUDIO
    TITLE "0:"
    INDEX 01 00:34:00
  TRACK 29 AUDIO
    TITLE "4:cjc044_4367"
    INDEX 01 00:34:53
  TRACK 30 AUDIO
    TITLE "0:"
    INDEX 01 00:36:01
  TRACK 31 AUDIO
    TITLE "5:cjc044_4368"
    INDEX 01 00:36:60
  TRACK 32 AUDIO
    TITLE "0:"
    INDEX 01 00:40:38
  TRACK 33 AUDIO
    TITLE "2:cjc044_4369"
    INDEX 01 00:42:21
  TRACK 34 AUDIO
    TITLE "0:"
    INDEX 01 00:43:40
  TRACK 35 AUDIO
    TITLE "3:cjc044_4370"
    INDEX 01 00:44:26
  TRACK 36 AUDIO
    TITLE "0:"
    INDEX 01 00:45:32
  TRACK 37 AUDIO
    TITLE "4:cjc044_4371"
    INDEX 01 00:46:17
  TRACK 38 AUDIO
    TITLE "0:"
    INDEX 01 00:47:34
  TRACK 39 AUDIO
    TITLE "5:cjc044_4372"
    INDEX 01 00:48:22
  TRACK 40 AUDIO
    TITLE "0:"
    INDEX 01 00:51:16
  TRACK 41 AUDIO
    TITLE "2:cjc044_4373"
    INDEX 01 00:52:73
  TRACK 42 AUDIO
    TITLE "0:"
    INDEX 01 00:54:07
  TRACK 43 AUDIO
    TITLE "3:cjc044_4374"
    INDEX 01 00:54:68
  TRACK 44 AUDIO
    TITLE "0:"
    INDEX 01 00:56:43
  TRACK 45 AUDIO
    TITLE "4:cjc044_4375"
    INDEX 01 00:57:27
  TRACK 46 AUDIO
    TITLE "0:"
    INDEX 01 00:58:38
  TRACK 47 AUDIO
    TITLE "5:cjc044_4376"
    INDEX 01 00:59:22
  TRACK 48 AUDIO
    TITLE "0:"
    INDEX 01 01:02:16
  TRACK 49 AUDIO
    TITLE "2:cjc044_4377"
    INDEX 01 01:04:05
  TRACK 50 AUDIO
    TITLE "0:"
    INDEX 01 01:05:13
  TRACK 51 AUDIO
    TITLE "3:cjc044_4378"
    INDEX 01 01:06:00
  TRACK 52 AUDIO
    TITLE "0:"
    INDEX 01 01:07:14
  TRACK 53 AUDIO
    TITLE "4:cjc044_4379"
    INDEX 01 01:08:01
  TRACK 54 AUDIO
    TITLE "0:"
    INDEX 01 01:09:10
  TRACK 55 AUDIO
    TITLE "5:cjc044_4380"
    INDEX 01 01:09:73
  TRACK 56 AUDIO
    TITLE "0:"
    INDEX 01 01:13:47
  TRACK 57 AUDIO
    TITLE "2:cjc044_4381"
    INDEX 01 01:15:25
  TRACK 58 AUDIO
    TITLE "0:"
    INDEX 01 01:16:32
  TRACK 59 AUDIO
    TITLE "3:cjc044_4382"
    INDEX 01 01:17:18
  TRACK 60 AUDIO
    TITLE "0:"
    INDEX 01 01:18:09
  TRACK 61 AUDIO
    TITLE "4:cjc044_4383"
    INDEX 01 01:18:58
  TRACK 62 AUDIO
    TITLE "0:"
    INDEX 01 01:19:64
  TRACK 63 AUDIO
    TITLE "5:cjc044_4384"
    INDEX 01 01:20:48
  TRACK 64 AUDIO
    TITLE "0:"
    INDEX 01 01:23:32
  TRACK 65 AUDIO
    TITLE "2:cjc044_4385"
    INDEX 01 01:25:17
  TRACK 66 AUDIO
    TITLE "0:"
    INDEX 01 01:26:23
  TRACK 67 AUDIO
    TITLE "3:cjc044_4386"
    INDEX 01 01:27:08
  TRACK 68 AUDIO
    TITLE "0:"
    INDEX 01 01:28:08
  TRACK 69 AUDIO
    TITLE "4:cjc044_4387"
    INDEX 01 01:28:69
  TRACK 70 AUDIO
    TITLE "0:"
    INDEX 01 01:29:70
  TRACK 71 AUDIO
    TITLE "5:cjc044_4388"
    INDEX 01 01:30:58
  TRACK 72 AUDIO
    TITLE "0:"
    INDEX 01 01:33:74
  TRACK 73 AUDIO
    TITLE "2:cjc044_4389"
    INDEX 01 01:35:53
  TRACK 74 AUDIO
    TITLE "0:"
    INDEX 01 01:36:74
  TRACK 75 AUDIO
    TITLE "3:cjc044_4390"
    INDEX 01 01:37:60
  TRACK 76 AUDIO
    TITLE "0:"
    INDEX 01 01:38:73
  TRACK 77 AUDIO
    TITLE "4:cjc044_4391"
    INDEX 01 01:39:55
  TRACK 78 AUDIO
    TITLE "0:"
    INDEX 01 01:40:74
  TRACK 79 AUDIO
    TITLE "5:cjc044_4392"
    INDEX 01 01:41:54
  TRACK 80 AUDIO
    TITLE "0:"
    INDEX 01 01:45:04
